<mxfile host="Electron" modified="2023-09-14T08:59:51.906Z" agent="Mozilla/5.0 (Windows NT 10.0; Win64; x64) AppleWebKit/537.36 (KHTML, like Gecko) draw.io/21.6.5 Chrome/114.0.5735.243 Electron/25.3.1 Safari/537.36" etag="KQJ8T41iKeg2KahW2NoY" version="21.6.5" type="device">
  <diagram name="Страница 1" id="6L-kyfun4muExtgisGBB">
    <mxGraphModel dx="1036" dy="702" grid="1" gridSize="10" guides="1" tooltips="1" connect="1" arrows="1" fold="1" page="1" pageScale="1" pageWidth="1169" pageHeight="827" math="0" shadow="0">
      <root>
        <mxCell id="0" />
        <mxCell id="1" parent="0" />
        <mxCell id="873j3NtIp_Nz0c57wWWv-1" value="&lt;b&gt;Информационная &lt;br&gt;система&lt;/b&gt;" style="shape=umlActor;verticalLabelPosition=bottom;verticalAlign=top;html=1;outlineConnect=0;" vertex="1" parent="1">
          <mxGeometry x="50" y="350" width="60" height="110" as="geometry" />
        </mxCell>
        <mxCell id="873j3NtIp_Nz0c57wWWv-2" value="&lt;b&gt;Сотрудник&lt;/b&gt;" style="shape=umlActor;verticalLabelPosition=bottom;verticalAlign=top;html=1;outlineConnect=0;" vertex="1" parent="1">
          <mxGeometry x="540" y="350" width="60" height="110" as="geometry" />
        </mxCell>
        <mxCell id="873j3NtIp_Nz0c57wWWv-3" value="&lt;b&gt;Клиент&lt;/b&gt;" style="shape=umlActor;verticalLabelPosition=bottom;verticalAlign=top;html=1;outlineConnect=0;" vertex="1" parent="1">
          <mxGeometry x="1020" y="350" width="60" height="110" as="geometry" />
        </mxCell>
        <mxCell id="873j3NtIp_Nz0c57wWWv-4" value="Сохранить заказ&lt;br&gt;в БД" style="rounded=1;whiteSpace=wrap;html=1;fillColor=#f8cecc;strokeColor=#b85450;" vertex="1" parent="1">
          <mxGeometry x="250" y="280" width="120" height="60" as="geometry" />
        </mxCell>
        <mxCell id="873j3NtIp_Nz0c57wWWv-5" value="Проверить наличие&lt;br&gt;клиента в базе" style="rounded=1;whiteSpace=wrap;html=1;fillColor=#f8cecc;strokeColor=#b85450;" vertex="1" parent="1">
          <mxGeometry x="250" y="460" width="120" height="60" as="geometry" />
        </mxCell>
        <mxCell id="873j3NtIp_Nz0c57wWWv-6" value="Отвечать на телефонные звонки" style="rounded=1;whiteSpace=wrap;html=1;fillColor=#f8cecc;strokeColor=#b85450;" vertex="1" parent="1">
          <mxGeometry x="780" y="180" width="120" height="60" as="geometry" />
        </mxCell>
        <mxCell id="873j3NtIp_Nz0c57wWWv-7" value="Предоставлять информацию о ценах" style="rounded=1;whiteSpace=wrap;html=1;fillColor=#f8cecc;strokeColor=#b85450;" vertex="1" parent="1">
          <mxGeometry x="680" y="280" width="120" height="60" as="geometry" />
        </mxCell>
        <mxCell id="873j3NtIp_Nz0c57wWWv-8" value="Сделать заказ" style="rounded=1;whiteSpace=wrap;html=1;fillColor=#f8cecc;strokeColor=#b85450;" vertex="1" parent="1">
          <mxGeometry x="790" y="360" width="120" height="60" as="geometry" />
        </mxCell>
        <mxCell id="873j3NtIp_Nz0c57wWWv-9" value="Оформить заказ" style="rounded=1;whiteSpace=wrap;html=1;fillColor=#f8cecc;strokeColor=#b85450;" vertex="1" parent="1">
          <mxGeometry x="660" y="430" width="120" height="60" as="geometry" />
        </mxCell>
        <mxCell id="873j3NtIp_Nz0c57wWWv-10" value="Отменить заказ" style="rounded=1;whiteSpace=wrap;html=1;fillColor=#f8cecc;strokeColor=#b85450;" vertex="1" parent="1">
          <mxGeometry x="810" y="490" width="120" height="60" as="geometry" />
        </mxCell>
        <mxCell id="873j3NtIp_Nz0c57wWWv-11" value="" style="endArrow=classic;html=1;rounded=0;entryX=1;entryY=0.5;entryDx=0;entryDy=0;" edge="1" parent="1" target="873j3NtIp_Nz0c57wWWv-4">
          <mxGeometry width="50" height="50" relative="1" as="geometry">
            <mxPoint x="520" y="390" as="sourcePoint" />
            <mxPoint x="640" y="380" as="targetPoint" />
          </mxGeometry>
        </mxCell>
        <mxCell id="873j3NtIp_Nz0c57wWWv-12" value="" style="endArrow=classic;html=1;rounded=0;entryX=1;entryY=0.5;entryDx=0;entryDy=0;" edge="1" parent="1" target="873j3NtIp_Nz0c57wWWv-5">
          <mxGeometry width="50" height="50" relative="1" as="geometry">
            <mxPoint x="520" y="440" as="sourcePoint" />
            <mxPoint x="380" y="320" as="targetPoint" />
          </mxGeometry>
        </mxCell>
        <mxCell id="873j3NtIp_Nz0c57wWWv-13" value="" style="endArrow=classic;html=1;rounded=0;exitX=0;exitY=0.5;exitDx=0;exitDy=0;" edge="1" parent="1" source="873j3NtIp_Nz0c57wWWv-4">
          <mxGeometry width="50" height="50" relative="1" as="geometry">
            <mxPoint x="540" y="410" as="sourcePoint" />
            <mxPoint x="120" y="380" as="targetPoint" />
          </mxGeometry>
        </mxCell>
        <mxCell id="873j3NtIp_Nz0c57wWWv-14" value="" style="endArrow=classic;html=1;rounded=0;" edge="1" parent="1">
          <mxGeometry width="50" height="50" relative="1" as="geometry">
            <mxPoint x="240" y="480" as="sourcePoint" />
            <mxPoint x="120" y="450" as="targetPoint" />
          </mxGeometry>
        </mxCell>
        <mxCell id="873j3NtIp_Nz0c57wWWv-15" value="" style="endArrow=classic;html=1;rounded=0;entryX=0;entryY=0.5;entryDx=0;entryDy=0;" edge="1" parent="1" target="873j3NtIp_Nz0c57wWWv-7">
          <mxGeometry width="50" height="50" relative="1" as="geometry">
            <mxPoint x="600" y="360" as="sourcePoint" />
            <mxPoint x="380" y="320" as="targetPoint" />
          </mxGeometry>
        </mxCell>
        <mxCell id="873j3NtIp_Nz0c57wWWv-16" value="" style="endArrow=classic;html=1;rounded=0;entryX=0;entryY=0.5;entryDx=0;entryDy=0;elbow=vertical;" edge="1" parent="1" target="873j3NtIp_Nz0c57wWWv-6">
          <mxGeometry width="50" height="50" relative="1" as="geometry">
            <mxPoint x="570" y="340" as="sourcePoint" />
            <mxPoint x="690" y="320" as="targetPoint" />
            <Array as="points">
              <mxPoint x="640" y="260" />
            </Array>
          </mxGeometry>
        </mxCell>
        <mxCell id="873j3NtIp_Nz0c57wWWv-18" value="" style="endArrow=classic;html=1;rounded=0;exitX=1;exitY=0.5;exitDx=0;exitDy=0;" edge="1" parent="1" source="873j3NtIp_Nz0c57wWWv-7">
          <mxGeometry width="50" height="50" relative="1" as="geometry">
            <mxPoint x="930" y="330" as="sourcePoint" />
            <mxPoint x="1010" y="370" as="targetPoint" />
          </mxGeometry>
        </mxCell>
        <mxCell id="873j3NtIp_Nz0c57wWWv-19" value="" style="endArrow=classic;html=1;rounded=0;exitX=1;exitY=0.5;exitDx=0;exitDy=0;" edge="1" parent="1" source="873j3NtIp_Nz0c57wWWv-6">
          <mxGeometry width="50" height="50" relative="1" as="geometry">
            <mxPoint x="810" y="320" as="sourcePoint" />
            <mxPoint x="1030" y="340" as="targetPoint" />
          </mxGeometry>
        </mxCell>
        <mxCell id="873j3NtIp_Nz0c57wWWv-20" value="" style="endArrow=classic;html=1;rounded=0;entryX=1;entryY=0.5;entryDx=0;entryDy=0;" edge="1" parent="1" source="873j3NtIp_Nz0c57wWWv-3" target="873j3NtIp_Nz0c57wWWv-8">
          <mxGeometry width="50" height="50" relative="1" as="geometry">
            <mxPoint x="610" y="370" as="sourcePoint" />
            <mxPoint x="690" y="320" as="targetPoint" />
          </mxGeometry>
        </mxCell>
        <mxCell id="873j3NtIp_Nz0c57wWWv-21" value="" style="endArrow=classic;html=1;rounded=0;exitX=0;exitY=0.5;exitDx=0;exitDy=0;" edge="1" parent="1" source="873j3NtIp_Nz0c57wWWv-8">
          <mxGeometry width="50" height="50" relative="1" as="geometry">
            <mxPoint x="1030" y="411" as="sourcePoint" />
            <mxPoint x="610" y="400" as="targetPoint" />
          </mxGeometry>
        </mxCell>
        <mxCell id="873j3NtIp_Nz0c57wWWv-22" value="" style="endArrow=classic;html=1;rounded=0;entryX=0;entryY=0.5;entryDx=0;entryDy=0;" edge="1" parent="1" target="873j3NtIp_Nz0c57wWWv-9">
          <mxGeometry width="50" height="50" relative="1" as="geometry">
            <mxPoint x="610" y="450" as="sourcePoint" />
            <mxPoint x="690" y="400" as="targetPoint" />
          </mxGeometry>
        </mxCell>
        <mxCell id="873j3NtIp_Nz0c57wWWv-23" value="" style="endArrow=classic;html=1;rounded=0;exitX=1;exitY=0.5;exitDx=0;exitDy=0;" edge="1" parent="1" source="873j3NtIp_Nz0c57wWWv-9">
          <mxGeometry width="50" height="50" relative="1" as="geometry">
            <mxPoint x="620" y="440" as="sourcePoint" />
            <mxPoint x="1010" y="440" as="targetPoint" />
          </mxGeometry>
        </mxCell>
        <mxCell id="873j3NtIp_Nz0c57wWWv-24" value="" style="endArrow=classic;html=1;rounded=0;entryX=1;entryY=0.5;entryDx=0;entryDy=0;" edge="1" parent="1" target="873j3NtIp_Nz0c57wWWv-10">
          <mxGeometry width="50" height="50" relative="1" as="geometry">
            <mxPoint x="1020" y="490" as="sourcePoint" />
            <mxPoint x="980" y="570" as="targetPoint" />
          </mxGeometry>
        </mxCell>
        <mxCell id="873j3NtIp_Nz0c57wWWv-25" value="" style="endArrow=classic;html=1;rounded=0;exitX=0;exitY=0.5;exitDx=0;exitDy=0;" edge="1" parent="1" source="873j3NtIp_Nz0c57wWWv-10">
          <mxGeometry width="50" height="50" relative="1" as="geometry">
            <mxPoint x="1030" y="500" as="sourcePoint" />
            <mxPoint x="600" y="490" as="targetPoint" />
            <Array as="points">
              <mxPoint x="700" y="540" />
            </Array>
          </mxGeometry>
        </mxCell>
      </root>
    </mxGraphModel>
  </diagram>
</mxfile>
